<?xml version="1.0" encoding="UTF-8" standalone="no"?>
<!DOCTYPE svg PUBLIC "-//W3C//DTD SVG 1.1//EN"
 "http://www.w3.org/Graphics/SVG/1.1/DTD/svg11.dtd">
<!-- Generated by graphviz version 14.1.2 (20260124.0452)
 -->
<!-- Title: OCI_CRD_API_Flow_Orthogonal Pages: 1 -->
<svg width="461pt" height="662pt"
 viewBox="0.00 0.00 461.00 662.00" xmlns="http://www.w3.org/2000/svg" xmlns:xlink="http://www.w3.org/1999/xlink">
<g id="graph0" class="graph" transform="scale(1 1) rotate(0) translate(14.4 647.95)">
<title>OCI_CRD_API_Flow_Orthogonal</title>
<polygon fill="white" stroke="none" points="-14.4,14.4 -14.4,-647.95 446.6,-647.95 446.6,14.4 -14.4,14.4"/>
<text xml:space="preserve" text-anchor="middle" x="156.88" y="-618.15" font-family="Helvetica,sans-Serif" font-size="12.00">Orthogonal API Flow: YAML &#45;&gt; CRD &#45;&gt; Controller &#45;&gt; OCI</text>
<!-- yaml -->
<g id="node1" class="node">
<title>yaml</title>
<path fill="#e0f2fe" stroke="#0284c7" d="M153.6,-612.8C153.6,-612.8 12,-612.8 12,-612.8 6,-612.8 0,-606.8 0,-600.8 0,-600.8 0,-560 0,-560 0,-554 6,-548 12,-548 12,-548 153.6,-548 153.6,-548 159.6,-548 165.6,-554 165.6,-560 165.6,-560 165.6,-600.8 165.6,-600.8 165.6,-606.8 159.6,-612.8 153.6,-612.8"/>
<text xml:space="preserve" text-anchor="middle" x="82.8" y="-581.95" font-family="Helvetica,sans-Serif" font-size="11.00">YAML</text>
<text xml:space="preserve" text-anchor="middle" x="82.8" y="-569.95" font-family="Helvetica,sans-Serif" font-size="11.00">(desired state)</text>
</g>
<!-- crd -->
<g id="node2" class="node">
<title>crd</title>
<path fill="#ecfeff" stroke="#0891b2" d="M153.6,-475.8C153.6,-475.8 12,-475.8 12,-475.8 6,-475.8 0,-469.8 0,-463.8 0,-463.8 0,-423 0,-423 0,-417 6,-411 12,-411 12,-411 153.6,-411 153.6,-411 159.6,-411 165.6,-417 165.6,-423 165.6,-423 165.6,-463.8 165.6,-463.8 165.6,-469.8 159.6,-475.8 153.6,-475.8"/>
<text xml:space="preserve" text-anchor="middle" x="82.8" y="-438.95" font-family="Helvetica,sans-Serif" font-size="11.00">Kubernetes API + CRD</text>
</g>
<!-- yaml&#45;&gt;crd -->
<g id="edge6" class="edge">
<title>yaml&#45;&gt;crd</title>
<path fill="none" stroke="#64748b" stroke-width="1.2" d="M83.2,-547.59C83.2,-547.59 83.2,-485.26 83.2,-485.26"/>
<polygon fill="#64748b" stroke="#64748b" stroke-width="1.2" points="85.83,-485.26 83.2,-477.76 80.58,-485.26 85.83,-485.26"/>
<text xml:space="preserve" text-anchor="middle" x="71.58" y="-506.92" font-family="Helvetica,sans-Serif" font-size="10.00" fill="#334155">apply</text>
</g>
<!-- spacer1 -->
<g id="node6" class="node">
<title>spacer1</title>
<ellipse fill="#f8fafc" stroke="white" cx="349.4" cy="-580.4" rx="0.36" ry="0.36"/>
</g>
<!-- yaml&#45;&gt;spacer1 -->
<!-- ctrl -->
<g id="node3" class="node">
<title>ctrl</title>
<path fill="#dcfce7" stroke="#16a34a" d="M153.6,-338.8C153.6,-338.8 12,-338.8 12,-338.8 6,-338.8 0,-332.8 0,-326.8 0,-326.8 0,-286 0,-286 0,-280 6,-274 12,-274 12,-274 153.6,-274 153.6,-274 159.6,-274 165.6,-280 165.6,-286 165.6,-286 165.6,-326.8 165.6,-326.8 165.6,-332.8 159.6,-338.8 153.6,-338.8"/>
<text xml:space="preserve" text-anchor="middle" x="82.8" y="-307.95" font-family="Helvetica,sans-Serif" font-size="11.00">Controller /</text>
<text xml:space="preserve" text-anchor="middle" x="82.8" y="-295.95" font-family="Helvetica,sans-Serif" font-size="11.00">Reconciler</text>
</g>
<!-- crd&#45;&gt;ctrl -->
<g id="edge7" class="edge">
<title>crd&#45;&gt;ctrl</title>
<path fill="none" stroke="#64748b" stroke-width="1.2" d="M83.2,-410.59C83.2,-410.59 83.2,-348.26 83.2,-348.26"/>
<polygon fill="#64748b" stroke="#64748b" stroke-width="1.2" points="85.83,-348.26 83.2,-340.76 80.58,-348.26 85.83,-348.26"/>
<text xml:space="preserve" text-anchor="middle" x="70.08" y="-369.92" font-family="Helvetica,sans-Serif" font-size="10.00" fill="#334155">watch</text>
</g>
<!-- status -->
<g id="node7" class="node">
<title>status</title>
<path fill="#f1f5f9" stroke="#475569" d="M420.2,-475.8C420.2,-475.8 278.6,-475.8 278.6,-475.8 272.6,-475.8 266.6,-469.8 266.6,-463.8 266.6,-463.8 266.6,-423 266.6,-423 266.6,-417 272.6,-411 278.6,-411 278.6,-411 420.2,-411 420.2,-411 426.2,-411 432.2,-417 432.2,-423 432.2,-423 432.2,-463.8 432.2,-463.8 432.2,-469.8 426.2,-475.8 420.2,-475.8"/>
<text xml:space="preserve" text-anchor="middle" x="349.4" y="-438.95" font-family="Helvetica,sans-Serif" font-size="11.00">Status / Conditions</text>
</g>
<!-- crd&#45;&gt;status -->
<!-- ociapi -->
<g id="node4" class="node">
<title>ociapi</title>
<path fill="#fee2e2" stroke="#dc2626" d="M153.6,-201.8C153.6,-201.8 12,-201.8 12,-201.8 6,-201.8 0,-195.8 0,-189.8 0,-189.8 0,-149 0,-149 0,-143 6,-137 12,-137 12,-137 153.6,-137 153.6,-137 159.6,-137 165.6,-143 165.6,-149 165.6,-149 165.6,-189.8 165.6,-189.8 165.6,-195.8 159.6,-201.8 153.6,-201.8"/>
<text xml:space="preserve" text-anchor="middle" x="82.8" y="-164.95" font-family="Helvetica,sans-Serif" font-size="11.00">OCI API</text>
</g>
<!-- ctrl&#45;&gt;ociapi -->
<g id="edge8" class="edge">
<title>ctrl&#45;&gt;ociapi</title>
<path fill="none" stroke="#64748b" stroke-width="1.2" d="M83.2,-273.59C83.2,-273.59 83.2,-211.26 83.2,-211.26"/>
<polygon fill="#64748b" stroke="#64748b" stroke-width="1.2" points="85.83,-211.26 83.2,-203.76 80.58,-211.26 85.83,-211.26"/>
<text xml:space="preserve" text-anchor="middle" x="63.7" y="-232.92" font-family="Helvetica,sans-Serif" font-size="10.00" fill="#334155">reconcile</text>
</g>
<!-- ctrl&#45;&gt;status -->
<g id="edge12" class="edge">
<title>ctrl&#45;&gt;status</title>
<path fill="none" stroke="#64748b" stroke-width="1.2" d="M165.77,-322.6C192.9,-322.6 216.2,-322.6 216.2,-322.6 216.2,-322.6 216.2,-427.2 216.2,-427.2 216.2,-427.2 256.86,-427.2 256.86,-427.2"/>
<polygon fill="#64748b" stroke="#64748b" stroke-width="1.2" points="256.86,-429.83 264.36,-427.2 256.86,-424.58 256.86,-429.83"/>
<text xml:space="preserve" text-anchor="middle" x="194.45" y="-360.51" font-family="Helvetica,sans-Serif" font-size="10.00" fill="#334155">set status</text>
</g>
<!-- observe -->
<g id="node8" class="node">
<title>observe</title>
<path fill="#fff7ed" stroke="#ea580c" d="M420.2,-338.8C420.2,-338.8 278.6,-338.8 278.6,-338.8 272.6,-338.8 266.6,-332.8 266.6,-326.8 266.6,-326.8 266.6,-286 266.6,-286 266.6,-280 272.6,-274 278.6,-274 278.6,-274 420.2,-274 420.2,-274 426.2,-274 432.2,-280 432.2,-286 432.2,-286 432.2,-326.8 432.2,-326.8 432.2,-332.8 426.2,-338.8 420.2,-338.8"/>
<text xml:space="preserve" text-anchor="middle" x="349.4" y="-301.95" font-family="Helvetica,sans-Serif" font-size="11.00">Observe Actual State</text>
</g>
<!-- ctrl&#45;&gt;observe -->
<!-- ocires -->
<g id="node5" class="node">
<title>ocires</title>
<path fill="#f3e8ff" stroke="#9333ea" d="M153.6,-64.8C153.6,-64.8 12,-64.8 12,-64.8 6,-64.8 0,-58.8 0,-52.8 0,-52.8 0,-12 0,-12 0,-6 6,0 12,0 12,0 153.6,0 153.6,0 159.6,0 165.6,-6 165.6,-12 165.6,-12 165.6,-52.8 165.6,-52.8 165.6,-58.8 159.6,-64.8 153.6,-64.8"/>
<text xml:space="preserve" text-anchor="middle" x="82.8" y="-27.95" font-family="Helvetica,sans-Serif" font-size="11.00">OCI Resource</text>
</g>
<!-- ociapi&#45;&gt;ocires -->
<g id="edge9" class="edge">
<title>ociapi&#45;&gt;ocires</title>
<path fill="none" stroke="#64748b" stroke-width="1.2" d="M83.2,-136.59C83.2,-136.59 83.2,-74.26 83.2,-74.26"/>
<polygon fill="#64748b" stroke="#64748b" stroke-width="1.2" points="85.83,-74.26 83.2,-66.76 80.58,-74.26 85.83,-74.26"/>
<text xml:space="preserve" text-anchor="middle" x="63.7" y="-95.92" font-family="Helvetica,sans-Serif" font-size="10.00" fill="#334155">provision</text>
</g>
<!-- spacer2 -->
<g id="node9" class="node">
<title>spacer2</title>
<ellipse fill="#f8fafc" stroke="white" cx="349.4" cy="-169.4" rx="0.36" ry="0.36"/>
</g>
<!-- ociapi&#45;&gt;spacer2 -->
<!-- ocires&#45;&gt;observe -->
<g id="edge10" class="edge">
<title>ocires&#45;&gt;observe</title>
<path fill="none" stroke="#64748b" stroke-width="1.2" d="M166.04,-49.1C229.9,-49.1 307.2,-49.1 307.2,-49.1 307.2,-49.1 307.2,-264.24 307.2,-264.24"/>
<polygon fill="#64748b" stroke="#64748b" stroke-width="1.2" points="304.58,-264.24 307.2,-271.74 309.83,-264.24 304.58,-264.24"/>
<text xml:space="preserve" text-anchor="middle" x="281.7" y="-76.59" font-family="Helvetica,sans-Serif" font-size="10.00" fill="#334155">actual state</text>
</g>
<!-- spacer3 -->
<g id="node10" class="node">
<title>spacer3</title>
<ellipse fill="#f8fafc" stroke="white" cx="349.4" cy="-32.4" rx="0.36" ry="0.36"/>
</g>
<!-- ocires&#45;&gt;spacer3 -->
<!-- status&#45;&gt;crd -->
<g id="edge13" class="edge">
<title>status&#45;&gt;crd</title>
<path fill="none" stroke="#64748b" stroke-width="1.2" d="M266.14,-459.6C266.14,-459.6 175.2,-459.6 175.2,-459.6"/>
<polygon fill="#64748b" stroke="#64748b" stroke-width="1.2" points="175.2,-456.98 167.7,-459.6 175.2,-462.23 175.2,-456.98"/>
<text xml:space="preserve" text-anchor="middle" x="191.05" y="-450.1" font-family="Helvetica,sans-Serif" font-size="10.00" fill="#334155">update status</text>
</g>
<!-- observe&#45;&gt;ctrl -->
<g id="edge11" class="edge">
<title>observe&#45;&gt;ctrl</title>
<path fill="none" stroke="#64748b" stroke-width="1.2" d="M266.14,-290.2C266.14,-290.2 175.2,-290.2 175.2,-290.2"/>
<polygon fill="#64748b" stroke="#64748b" stroke-width="1.2" points="175.2,-287.58 167.7,-290.2 175.2,-292.83 175.2,-287.58"/>
<text xml:space="preserve" text-anchor="middle" x="203.42" y="-280.7" font-family="Helvetica,sans-Serif" font-size="10.00" fill="#334155">observe</text>
</g>
</g>
</svg>
